<svg width="25" height="25" viewBox="0 0 25 25" fill="none" xmlns="http://www.w3.org/2000/svg">
<path d="M22.6564 13.3454C22.4905 15.2751 21.7768 17.1172 20.5994 18.6551C19.4221 20.1929 17.83 21.3625 16.0105 22.0263C14.191 22.69 12.2198 22.8203 10.3288 22.4018C8.43772 21.9833 6.70556 21.0334 5.33604 19.6639C3.96653 18.2944 3.01664 16.5622 2.59813 14.6712C2.17962 12.7801 2.30991 10.8089 2.97366 8.9894C3.63741 7.1699 4.80701 5.57782 6.34486 4.40046C7.88271 3.22311 9.72482 2.50946 11.6545 2.34347C11.7571 2.33501 11.8603 2.34684 11.9584 2.37828C12.0564 2.40972 12.1473 2.46016 12.2258 2.52672C12.3043 2.59328 12.369 2.67466 12.4161 2.76621C12.4631 2.85775 12.4917 2.95768 12.5002 3.06027C12.5087 3.16287 12.4968 3.26612 12.4654 3.36415C12.4339 3.46217 12.3835 3.55305 12.3169 3.63158C12.2504 3.71011 12.169 3.77476 12.0775 3.82184C11.9859 3.86892 11.886 3.89751 11.7834 3.90597C10.1502 4.0463 8.59102 4.65018 7.28936 5.64656C5.9877 6.64295 4.99771 7.99038 4.43586 9.53031C3.87401 11.0703 3.76368 12.7386 4.11785 14.3391C4.47202 15.9397 5.27596 17.4057 6.43508 18.5648C7.59419 19.7239 9.06025 20.5279 10.6608 20.8821C12.2613 21.2362 13.9297 21.1259 15.4696 20.5641C17.0095 20.0022 18.357 19.0122 19.3533 17.7106C20.3497 16.4089 20.9536 14.8497 21.0939 13.2165C21.111 13.0093 21.2097 12.8174 21.3683 12.683C21.5269 12.5485 21.7324 12.4826 21.9396 12.4997C22.1468 12.5168 22.3388 12.6155 22.4732 12.7741C22.6076 12.9327 22.6735 13.1382 22.6564 13.3454ZM11.7189 7.03097V12.4997C11.7189 12.7069 11.8013 12.9056 11.9478 13.0522C12.0943 13.1987 12.293 13.281 12.5002 13.281H17.9689C18.1761 13.281 18.3749 13.1987 18.5214 13.0522C18.6679 12.9056 18.7502 12.7069 18.7502 12.4997C18.7502 12.2925 18.6679 12.0938 18.5214 11.9473C18.3749 11.8008 18.1761 11.7185 17.9689 11.7185H13.2814V7.03097C13.2814 6.82377 13.1991 6.62506 13.0526 6.47855C12.9061 6.33203 12.7074 6.24972 12.5002 6.24972C12.293 6.24972 12.0943 6.33203 11.9478 6.47855C11.8013 6.62506 11.7189 6.82377 11.7189 7.03097ZM15.6252 4.68722C15.857 4.68722 16.0835 4.61849 16.2762 4.48973C16.469 4.36096 16.6192 4.17794 16.7079 3.96381C16.7966 3.74967 16.8198 3.51405 16.7745 3.28673C16.7293 3.05941 16.6177 2.8506 16.4538 2.68671C16.2899 2.52282 16.0811 2.41121 15.8538 2.36599C15.6265 2.32077 15.3909 2.34398 15.1767 2.43268C14.9626 2.52137 14.7796 2.67158 14.6508 2.86429C14.522 3.057 14.4533 3.28357 14.4533 3.51535C14.4533 3.82615 14.5768 4.12422 14.7965 4.34399C15.0163 4.56376 15.3144 4.68722 15.6252 4.68722ZM19.1408 7.03097C19.3726 7.03097 19.5992 6.96224 19.7919 6.83348C19.9846 6.70471 20.1348 6.52169 20.2235 6.30756C20.3122 6.09342 20.3354 5.8578 20.2902 5.63048C20.245 5.40316 20.1333 5.19435 19.9695 5.03046C19.8056 4.86657 19.5968 4.75496 19.3694 4.70974C19.1421 4.66452 18.9065 4.68773 18.6924 4.77643C18.4782 4.86512 18.2952 5.01533 18.1664 5.20804C18.0377 5.40075 17.9689 5.62732 17.9689 5.8591C17.9689 6.1699 18.0924 6.46797 18.3122 6.68774C18.5319 6.90751 18.83 7.03097 19.1408 7.03097ZM21.4846 10.5466C21.7163 10.5466 21.9429 10.4779 22.1356 10.3491C22.3283 10.2203 22.4785 10.0373 22.5672 9.82318C22.6559 9.60905 22.6791 9.37342 22.6339 9.1461C22.5887 8.91878 22.4771 8.70997 22.3132 8.54608C22.1493 8.38219 21.9405 8.27058 21.7132 8.22537C21.4859 8.18015 21.2502 8.20336 21.0361 8.29205C20.822 8.38075 20.639 8.53095 20.5102 8.72366C20.3814 8.91638 20.3127 9.14295 20.3127 9.37472C20.3127 9.68552 20.4362 9.98359 20.6559 10.2034C20.8757 10.4231 21.1738 10.5466 21.4846 10.5466Z" fill="#E8F3FF"/>
</svg>
