<svg width="222" height="31" viewBox="0 0 222 31" fill="none" xmlns="http://www.w3.org/2000/svg">
<path d="M91.946 21.0004C91.7873 21.0004 91.6567 20.9491 91.554 20.8464C91.4513 20.7437 91.4 20.6131 91.4 20.4544V10.6124C91.4 10.4537 91.4513 10.3231 91.554 10.2204C91.6567 10.1177 91.7873 10.0664 91.946 10.0664H94.466C95.2687 10.0664 96.0013 10.2017 96.664 10.4724C97.336 10.7337 97.9147 11.1117 98.4 11.6064C98.8853 12.0917 99.2587 12.6657 99.52 13.3284C99.7907 13.9911 99.926 14.7237 99.926 15.5264C99.926 16.3291 99.7907 17.0664 99.52 17.7384C99.2587 18.4011 98.8853 18.9797 98.4 19.4744C97.9147 19.9597 97.336 20.3377 96.664 20.6084C96.0013 20.8697 95.2687 21.0004 94.466 21.0004H91.946ZM92.492 20.0204H94.466C95.3247 20.0204 96.0807 19.8291 96.734 19.4464C97.3967 19.0544 97.9147 18.5224 98.288 17.8504C98.6613 17.1691 98.848 16.3944 98.848 15.5264C98.848 14.6584 98.6613 13.8884 98.288 13.2164C97.9147 12.5351 97.3967 12.0031 96.734 11.6204C96.0807 11.2377 95.3247 11.0464 94.466 11.0464H92.492V20.0204Z" fill="#002E5A"/>
<path d="M102.803 21.0004C102.635 21.0004 102.5 20.9537 102.397 20.8604C102.304 20.7577 102.257 20.6224 102.257 20.4544V13.8884C102.257 13.7204 102.304 13.5897 102.397 13.4964C102.5 13.3937 102.635 13.3424 102.803 13.3424C102.962 13.3424 103.088 13.3937 103.181 13.4964C103.284 13.5897 103.335 13.7204 103.335 13.8884V20.4544C103.335 20.6224 103.284 20.7577 103.181 20.8604C103.088 20.9537 102.962 21.0004 102.803 21.0004ZM102.789 11.8864C102.584 11.8864 102.407 11.8117 102.257 11.6624C102.108 11.5131 102.033 11.3311 102.033 11.1164C102.033 10.8831 102.108 10.7011 102.257 10.5704C102.416 10.4304 102.598 10.3604 102.803 10.3604C102.999 10.3604 103.172 10.4304 103.321 10.5704C103.48 10.7011 103.559 10.8831 103.559 11.1164C103.559 11.3311 103.485 11.5131 103.335 11.6624C103.186 11.8117 103.004 11.8864 102.789 11.8864Z" fill="#002E5A"/>
<path d="M109.454 21.0704C108.717 21.0704 108.064 20.9071 107.494 20.5804C106.925 20.2444 106.477 19.7824 106.15 19.1944C105.833 18.6064 105.674 17.9344 105.674 17.1784C105.674 16.4131 105.842 15.7364 106.178 15.1484C106.514 14.5604 106.976 14.1031 107.564 13.7764C108.152 13.4404 108.82 13.2724 109.566 13.2724C110.322 13.2724 110.99 13.4404 111.568 13.7764C112.156 14.1031 112.614 14.5604 112.94 15.1484C113.276 15.7364 113.449 16.4131 113.458 17.1784L112.828 17.5144C112.828 18.2051 112.684 18.8211 112.394 19.3624C112.105 19.8944 111.704 20.3144 111.19 20.6224C110.686 20.9211 110.108 21.0704 109.454 21.0704ZM109.594 24.0244C108.857 24.0244 108.208 23.8844 107.648 23.6044C107.088 23.3337 106.626 22.9604 106.262 22.4844C106.16 22.3724 106.113 22.2511 106.122 22.1204C106.141 21.9897 106.211 21.8824 106.332 21.7984C106.454 21.7144 106.589 21.6864 106.738 21.7144C106.888 21.7424 107.004 21.8124 107.088 21.9244C107.359 22.2604 107.704 22.5311 108.124 22.7364C108.554 22.9417 109.048 23.0444 109.608 23.0444C110.131 23.0444 110.602 22.9184 111.022 22.6664C111.442 22.4144 111.774 22.0597 112.016 21.6024C112.268 21.1451 112.394 20.6084 112.394 19.9924V17.8644L112.8 17.0524L113.458 17.1784V20.0344C113.458 20.7904 113.29 21.4671 112.954 22.0644C112.618 22.6711 112.161 23.1471 111.582 23.4924C111.004 23.8471 110.341 24.0244 109.594 24.0244ZM109.566 20.0904C110.117 20.0904 110.602 19.9691 111.022 19.7264C111.452 19.4744 111.788 19.1291 112.03 18.6904C112.273 18.2517 112.394 17.7477 112.394 17.1784C112.394 16.6091 112.273 16.1051 112.03 15.6664C111.788 15.2184 111.452 14.8731 111.022 14.6304C110.602 14.3784 110.117 14.2524 109.566 14.2524C109.016 14.2524 108.526 14.3784 108.096 14.6304C107.667 14.8731 107.331 15.2184 107.088 15.6664C106.846 16.1051 106.724 16.6091 106.724 17.1784C106.724 17.7477 106.846 18.2517 107.088 18.6904C107.331 19.1291 107.667 19.4744 108.096 19.7264C108.526 19.9691 109.016 20.0904 109.566 20.0904Z" fill="#002E5A"/>
<path d="M116.325 21.0004C116.157 21.0004 116.022 20.9537 115.919 20.8604C115.826 20.7577 115.779 20.6224 115.779 20.4544V13.8884C115.779 13.7204 115.826 13.5897 115.919 13.4964C116.022 13.3937 116.157 13.3424 116.325 13.3424C116.484 13.3424 116.61 13.3937 116.703 13.4964C116.806 13.5897 116.857 13.7204 116.857 13.8884V20.4544C116.857 20.6224 116.806 20.7577 116.703 20.8604C116.61 20.9537 116.484 21.0004 116.325 21.0004ZM116.311 11.8864C116.106 11.8864 115.928 11.8117 115.779 11.6624C115.63 11.5131 115.555 11.3311 115.555 11.1164C115.555 10.8831 115.63 10.7011 115.779 10.5704C115.938 10.4304 116.12 10.3604 116.325 10.3604C116.521 10.3604 116.694 10.4304 116.843 10.5704C117.002 10.7011 117.081 10.8831 117.081 11.1164C117.081 11.3311 117.006 11.5131 116.857 11.6624C116.708 11.8117 116.526 11.8864 116.311 11.8864Z" fill="#002E5A"/>
<path d="M122.598 21.0004C122.103 21.0004 121.66 20.8837 121.268 20.6504C120.885 20.4171 120.582 20.0997 120.358 19.6984C120.134 19.2877 120.022 18.8211 120.022 18.2984V11.4524C120.022 11.2937 120.068 11.1631 120.162 11.0604C120.264 10.9577 120.395 10.9064 120.554 10.9064C120.712 10.9064 120.843 10.9577 120.946 11.0604C121.048 11.1631 121.1 11.2937 121.1 11.4524V18.2984C121.1 18.7744 121.24 19.1664 121.52 19.4744C121.8 19.7731 122.159 19.9224 122.598 19.9224H122.976C123.125 19.9224 123.246 19.9737 123.34 20.0764C123.433 20.1791 123.48 20.3097 123.48 20.4684C123.48 20.6271 123.424 20.7577 123.312 20.8604C123.2 20.9537 123.06 21.0004 122.892 21.0004H122.598ZM119.112 14.5604C118.972 14.5604 118.855 14.5184 118.762 14.4344C118.668 14.3411 118.622 14.2291 118.622 14.0984C118.622 13.9584 118.668 13.8464 118.762 13.7624C118.855 13.6691 118.972 13.6224 119.112 13.6224H122.682C122.822 13.6224 122.938 13.6691 123.032 13.7624C123.125 13.8464 123.172 13.9584 123.172 14.0984C123.172 14.2291 123.125 14.3411 123.032 14.4344C122.938 14.5184 122.822 14.5604 122.682 14.5604H119.112Z" fill="#002E5A"/>
<path d="M128.609 21.0704C127.89 21.0704 127.246 20.9024 126.677 20.5664C126.107 20.2211 125.655 19.7544 125.319 19.1664C124.992 18.5784 124.829 17.9157 124.829 17.1784C124.829 16.4317 124.997 15.7644 125.333 15.1764C125.678 14.5884 126.145 14.1264 126.733 13.7904C127.321 13.4451 127.983 13.2724 128.721 13.2724C129.458 13.2724 130.116 13.4451 130.695 13.7904C131.283 14.1264 131.745 14.5884 132.081 15.1764C132.426 15.7644 132.603 16.4317 132.613 17.1784L132.179 17.5144C132.179 18.1864 132.02 18.7931 131.703 19.3344C131.395 19.8664 130.97 20.2911 130.429 20.6084C129.897 20.9164 129.29 21.0704 128.609 21.0704ZM128.721 20.0904C129.262 20.0904 129.743 19.9644 130.163 19.7124C130.592 19.4604 130.928 19.1151 131.171 18.6764C131.423 18.2284 131.549 17.7291 131.549 17.1784C131.549 16.6184 131.423 16.1191 131.171 15.6804C130.928 15.2417 130.592 14.8964 130.163 14.6444C129.743 14.3831 129.262 14.2524 128.721 14.2524C128.189 14.2524 127.708 14.3831 127.279 14.6444C126.849 14.8964 126.509 15.2417 126.257 15.6804C126.005 16.1191 125.879 16.6184 125.879 17.1784C125.879 17.7291 126.005 18.2284 126.257 18.6764C126.509 19.1151 126.849 19.4604 127.279 19.7124C127.708 19.9644 128.189 20.0904 128.721 20.0904ZM132.067 21.0004C131.908 21.0004 131.777 20.9537 131.675 20.8604C131.572 20.7577 131.521 20.6271 131.521 20.4684V18.0744L131.787 16.9684L132.613 17.1784V20.4684C132.613 20.6271 132.561 20.7577 132.459 20.8604C132.356 20.9537 132.225 21.0004 132.067 21.0004Z" fill="#002E5A"/>
<path d="M136.361 21.0004C135.988 21.0004 135.652 20.8977 135.353 20.6924C135.064 20.4871 134.835 20.2024 134.667 19.8384C134.509 19.4744 134.429 19.0544 134.429 18.5784V10.5984C134.429 10.4397 134.476 10.3137 134.569 10.2204C134.672 10.1177 134.803 10.0664 134.961 10.0664C135.12 10.0664 135.246 10.1177 135.339 10.2204C135.442 10.3137 135.493 10.4397 135.493 10.5984V18.5784C135.493 18.9797 135.573 19.3064 135.731 19.5584C135.899 19.8104 136.109 19.9364 136.361 19.9364H136.711C136.851 19.9364 136.963 19.9877 137.047 20.0904C137.131 20.1837 137.173 20.3097 137.173 20.4684C137.173 20.6271 137.113 20.7577 136.991 20.8604C136.879 20.9537 136.73 21.0004 136.543 21.0004H136.361Z" fill="#002E5A"/>
<path d="M143.448 21.0004C143.289 21.0004 143.159 20.9491 143.056 20.8464C142.953 20.7437 142.902 20.6131 142.902 20.4544V10.6124C142.902 10.4537 142.953 10.3231 143.056 10.2204C143.159 10.1177 143.289 10.0664 143.448 10.0664H150.014C150.163 10.0664 150.289 10.1177 150.392 10.2204C150.504 10.3137 150.56 10.4397 150.56 10.5984C150.56 10.7384 150.504 10.8597 150.392 10.9624C150.289 11.0651 150.163 11.1164 150.014 11.1164H143.994V14.9804H148.376C148.535 14.9804 148.665 15.0317 148.768 15.1344C148.871 15.2371 148.922 15.3631 148.922 15.5124C148.922 15.6617 148.871 15.7877 148.768 15.8904C148.665 15.9931 148.535 16.0444 148.376 16.0444H143.994V19.9504H150.014C150.163 19.9504 150.289 20.0017 150.392 20.1044C150.504 20.2071 150.56 20.3284 150.56 20.4684C150.56 20.6271 150.504 20.7577 150.392 20.8604C150.289 20.9537 150.163 21.0004 150.014 21.0004H143.448Z" fill="#002E5A"/>
<path d="M157.379 21.0004C157.267 21.0004 157.174 20.9817 157.099 20.9444C157.034 20.9071 156.964 20.8417 156.889 20.7484L154.467 17.6684L154.047 17.3044L151.611 14.2104C151.509 14.0891 151.457 13.9631 151.457 13.8324C151.467 13.7017 151.513 13.5897 151.597 13.4964C151.681 13.3937 151.803 13.3424 151.961 13.3424C152.12 13.3424 152.255 13.3984 152.367 13.5104L154.719 16.5204L155.097 16.8284L157.701 20.1604C157.823 20.3097 157.874 20.4497 157.855 20.5804C157.837 20.7111 157.776 20.8137 157.673 20.8884C157.58 20.9631 157.482 21.0004 157.379 21.0004ZM151.835 21.0004C151.686 21.0004 151.565 20.9537 151.471 20.8604C151.387 20.7671 151.341 20.6551 151.331 20.5244C151.331 20.3937 151.383 20.2677 151.485 20.1464L154.061 16.9264L154.663 17.7244L152.213 20.8324C152.129 20.9444 152.003 21.0004 151.835 21.0004ZM155.111 17.3604L154.425 16.6604L156.847 13.5944C156.913 13.5011 156.983 13.4357 157.057 13.3984C157.141 13.3611 157.225 13.3424 157.309 13.3424C157.468 13.3424 157.589 13.3937 157.673 13.4964C157.757 13.5897 157.795 13.7064 157.785 13.8464C157.785 13.9771 157.739 14.1031 157.645 14.2244L155.111 17.3604Z" fill="#002E5A"/>
<path d="M162.378 21.0704C161.659 21.0704 161.015 20.9024 160.446 20.5664C159.877 20.2211 159.424 19.7544 159.088 19.1664C158.761 18.5784 158.598 17.9157 158.598 17.1784C158.598 16.4317 158.766 15.7644 159.102 15.1764C159.447 14.5884 159.914 14.1264 160.502 13.7904C161.09 13.4451 161.753 13.2724 162.49 13.2724C163.227 13.2724 163.885 13.4451 164.464 13.7904C165.052 14.1264 165.514 14.5884 165.85 15.1764C166.195 15.7644 166.373 16.4317 166.382 17.1784L165.948 17.5144C165.948 18.1864 165.789 18.7931 165.472 19.3344C165.164 19.8664 164.739 20.2911 164.198 20.6084C163.666 20.9164 163.059 21.0704 162.378 21.0704ZM162.49 20.0904C163.031 20.0904 163.512 19.9644 163.932 19.7124C164.361 19.4604 164.697 19.1151 164.94 18.6764C165.192 18.2284 165.318 17.7291 165.318 17.1784C165.318 16.6184 165.192 16.1191 164.94 15.6804C164.697 15.2417 164.361 14.8964 163.932 14.6444C163.512 14.3831 163.031 14.2524 162.49 14.2524C161.958 14.2524 161.477 14.3831 161.048 14.6444C160.619 14.8964 160.278 15.2417 160.026 15.6804C159.774 16.1191 159.648 16.6184 159.648 17.1784C159.648 17.7291 159.774 18.2284 160.026 18.6764C160.278 19.1151 160.619 19.4604 161.048 19.7124C161.477 19.9644 161.958 20.0904 162.49 20.0904ZM165.836 21.0004C165.677 21.0004 165.547 20.9537 165.444 20.8604C165.341 20.7577 165.29 20.6271 165.29 20.4684V18.0744L165.556 16.9684L166.382 17.1784V20.4684C166.382 20.6271 166.331 20.7577 166.228 20.8604C166.125 20.9537 165.995 21.0004 165.836 21.0004Z" fill="#002E5A"/>
<path d="M178.825 21.0004C178.666 21.0004 178.535 20.9537 178.433 20.8604C178.33 20.7577 178.279 20.6271 178.279 20.4684V16.4364C178.279 15.7737 178.106 15.2511 177.761 14.8684C177.415 14.4764 176.972 14.2804 176.431 14.2804C175.852 14.2804 175.376 14.4764 175.003 14.8684C174.639 15.2511 174.461 15.7644 174.471 16.4084H173.505C173.514 15.7831 173.649 15.2324 173.911 14.7564C174.172 14.2804 174.531 13.9117 174.989 13.6504C175.446 13.3891 175.964 13.2584 176.543 13.2584C177.093 13.2584 177.579 13.3891 177.999 13.6504C178.428 13.9117 178.759 14.2804 178.993 14.7564C179.235 15.2324 179.357 15.7924 179.357 16.4364V20.4684C179.357 20.6271 179.305 20.7577 179.203 20.8604C179.109 20.9537 178.983 21.0004 178.825 21.0004ZM169.025 21.0004C168.857 21.0004 168.721 20.9537 168.619 20.8604C168.525 20.7577 168.479 20.6271 168.479 20.4684V13.8884C168.479 13.7297 168.525 13.5991 168.619 13.4964C168.721 13.3937 168.857 13.3424 169.025 13.3424C169.183 13.3424 169.309 13.3937 169.403 13.4964C169.505 13.5991 169.557 13.7297 169.557 13.8884V20.4684C169.557 20.6271 169.505 20.7577 169.403 20.8604C169.309 20.9537 169.183 21.0004 169.025 21.0004ZM173.939 21.0004C173.78 21.0004 173.649 20.9537 173.547 20.8604C173.444 20.7577 173.393 20.6271 173.393 20.4684V16.4364C173.393 15.7737 173.22 15.2511 172.875 14.8684C172.529 14.4764 172.086 14.2804 171.545 14.2804C170.966 14.2804 170.49 14.4717 170.117 14.8544C169.743 15.2277 169.557 15.7177 169.557 16.3244H168.787C168.805 15.7271 168.936 15.1997 169.179 14.7424C169.431 14.2757 169.771 13.9117 170.201 13.6504C170.63 13.3891 171.115 13.2584 171.657 13.2584C172.207 13.2584 172.693 13.3891 173.113 13.6504C173.542 13.9117 173.873 14.2804 174.107 14.7564C174.349 15.2324 174.471 15.7924 174.471 16.4364V20.4684C174.471 20.6271 174.419 20.7577 174.317 20.8604C174.223 20.9537 174.097 21.0004 173.939 21.0004Z" fill="#002E5A"/>
<path d="M185.66 21.0004C185.511 21.0004 185.38 20.9491 185.268 20.8464C185.165 20.7344 185.114 20.6037 185.114 20.4544V10.6124C185.114 10.4537 185.165 10.3231 185.268 10.2204C185.371 10.1177 185.501 10.0664 185.66 10.0664H192.226C192.385 10.0664 192.515 10.1177 192.618 10.2204C192.721 10.3137 192.772 10.4397 192.772 10.5984C192.772 10.7384 192.721 10.8597 192.618 10.9624C192.515 11.0651 192.385 11.1164 192.226 11.1164H186.206V14.9804H190.588C190.747 14.9804 190.877 15.0317 190.98 15.1344C191.083 15.2371 191.134 15.3631 191.134 15.5124C191.134 15.6617 191.083 15.7877 190.98 15.8904C190.877 15.9931 190.747 16.0444 190.588 16.0444H186.206V20.4544C186.206 20.6037 186.155 20.7344 186.052 20.8464C185.949 20.9491 185.819 21.0004 185.66 21.0004Z" fill="#002E5A"/>
<path d="M198.078 21.0704C197.331 21.0704 196.664 20.9024 196.076 20.5664C195.488 20.2304 195.026 19.7684 194.69 19.1804C194.354 18.5924 194.186 17.9251 194.186 17.1784C194.186 16.4224 194.354 15.7504 194.69 15.1624C195.026 14.5744 195.488 14.1124 196.076 13.7764C196.664 13.4404 197.331 13.2724 198.078 13.2724C198.825 13.2724 199.487 13.4404 200.066 13.7764C200.654 14.1124 201.116 14.5744 201.452 15.1624C201.788 15.7504 201.961 16.4224 201.97 17.1784C201.97 17.9251 201.797 18.5924 201.452 19.1804C201.116 19.7684 200.654 20.2304 200.066 20.5664C199.487 20.9024 198.825 21.0704 198.078 21.0704ZM198.078 20.0904C198.619 20.0904 199.105 19.9644 199.534 19.7124C199.963 19.4604 200.299 19.1151 200.542 18.6764C200.785 18.2377 200.906 17.7384 200.906 17.1784C200.906 16.6184 200.785 16.1191 200.542 15.6804C200.299 15.2324 199.963 14.8824 199.534 14.6304C199.105 14.3784 198.619 14.2524 198.078 14.2524C197.537 14.2524 197.051 14.3784 196.622 14.6304C196.193 14.8824 195.852 15.2324 195.6 15.6804C195.357 16.1191 195.236 16.6184 195.236 17.1784C195.236 17.7384 195.357 18.2377 195.6 18.6764C195.852 19.1151 196.193 19.4604 196.622 19.7124C197.051 19.9644 197.537 20.0904 198.078 20.0904Z" fill="#002E5A"/>
<path d="M204.515 16.2824C204.543 15.7037 204.692 15.1857 204.963 14.7284C205.243 14.2711 205.602 13.9117 206.041 13.6504C206.489 13.3891 206.983 13.2584 207.525 13.2584C207.954 13.2584 208.285 13.3191 208.519 13.4404C208.752 13.5617 208.841 13.7391 208.785 13.9724C208.747 14.1124 208.682 14.2057 208.589 14.2524C208.505 14.2991 208.397 14.3177 208.267 14.3084C208.145 14.2991 208.005 14.2897 207.847 14.2804C207.324 14.2337 206.857 14.2897 206.447 14.4484C206.045 14.5977 205.723 14.8311 205.481 15.1484C205.247 15.4657 205.131 15.8437 205.131 16.2824H204.515ZM204.599 21.0004C204.431 21.0004 204.3 20.9537 204.207 20.8604C204.113 20.7671 204.067 20.6364 204.067 20.4684V13.8744C204.067 13.7064 204.113 13.5757 204.207 13.4824C204.3 13.3891 204.431 13.3424 204.599 13.3424C204.767 13.3424 204.897 13.3891 204.991 13.4824C205.084 13.5757 205.131 13.7064 205.131 13.8744V20.4684C205.131 20.6364 205.084 20.7671 204.991 20.8604C204.897 20.9537 204.767 21.0004 204.599 21.0004Z" fill="#002E5A"/>
<path d="M220.825 21.0004C220.666 21.0004 220.535 20.9537 220.433 20.8604C220.33 20.7577 220.279 20.6271 220.279 20.4684V16.4364C220.279 15.7737 220.106 15.2511 219.761 14.8684C219.415 14.4764 218.972 14.2804 218.431 14.2804C217.852 14.2804 217.376 14.4764 217.003 14.8684C216.639 15.2511 216.461 15.7644 216.471 16.4084H215.505C215.514 15.7831 215.649 15.2324 215.911 14.7564C216.172 14.2804 216.531 13.9117 216.989 13.6504C217.446 13.3891 217.964 13.2584 218.543 13.2584C219.093 13.2584 219.579 13.3891 219.999 13.6504C220.428 13.9117 220.759 14.2804 220.993 14.7564C221.235 15.2324 221.357 15.7924 221.357 16.4364V20.4684C221.357 20.6271 221.305 20.7577 221.203 20.8604C221.109 20.9537 220.983 21.0004 220.825 21.0004ZM211.025 21.0004C210.857 21.0004 210.721 20.9537 210.619 20.8604C210.525 20.7577 210.479 20.6271 210.479 20.4684V13.8884C210.479 13.7297 210.525 13.5991 210.619 13.4964C210.721 13.3937 210.857 13.3424 211.025 13.3424C211.183 13.3424 211.309 13.3937 211.403 13.4964C211.505 13.5991 211.557 13.7297 211.557 13.8884V20.4684C211.557 20.6271 211.505 20.7577 211.403 20.8604C211.309 20.9537 211.183 21.0004 211.025 21.0004ZM215.939 21.0004C215.78 21.0004 215.649 20.9537 215.547 20.8604C215.444 20.7577 215.393 20.6271 215.393 20.4684V16.4364C215.393 15.7737 215.22 15.2511 214.875 14.8684C214.529 14.4764 214.086 14.2804 213.545 14.2804C212.966 14.2804 212.49 14.4717 212.117 14.8544C211.743 15.2277 211.557 15.7177 211.557 16.3244H210.787C210.805 15.7271 210.936 15.1997 211.179 14.7424C211.431 14.2757 211.771 13.9117 212.201 13.6504C212.63 13.3891 213.115 13.2584 213.657 13.2584C214.207 13.2584 214.693 13.3891 215.113 13.6504C215.542 13.9117 215.873 14.2804 216.107 14.7564C216.349 15.2324 216.471 15.7924 216.471 16.4364V20.4684C216.471 20.6271 216.419 20.7577 216.317 20.8604C216.223 20.9537 216.097 21.0004 215.939 21.0004Z" fill="#002E5A"/>
<g filter="url(#filter0_i_3617_25570)">
<path d="M79.7352 1H3.74266C2.22793 1 1 2.22793 1 3.74266V27.385C1 28.8997 2.22793 30.1276 3.74266 30.1276H79.7352C81.2499 30.1276 82.4778 28.8997 82.4778 27.385V3.74266C82.4778 2.22793 81.2499 1 79.7352 1Z" fill="white"/>
</g>
<path d="M79.7352 1H3.74266C2.22793 1 1 2.22793 1 3.74266V27.385C1 28.8997 2.22793 30.1276 3.74266 30.1276H79.7352C81.2499 30.1276 82.4778 28.8997 82.4778 27.385V3.74266C82.4778 2.22793 81.2499 1 79.7352 1Z" stroke="url(#paint0_linear_3617_25570)" stroke-width="0.5" stroke-miterlimit="10"/>
<path opacity="0.4" d="M14.1577 12.8758C16.0284 12.8758 17.5448 11.3593 17.5448 9.48866C17.5448 7.61802 16.0284 6.10156 14.1577 6.10156C12.2871 6.10156 10.7706 7.61802 10.7706 9.48866C10.7706 11.3593 12.2871 12.8758 14.1577 12.8758Z" fill="#29D277"/>
<path d="M14.1513 11.6949C15.3515 11.6949 16.3244 10.722 16.3244 9.52178C16.3244 8.32158 15.3515 7.34863 14.1513 7.34863C12.9511 7.34863 11.9781 8.32158 11.9781 9.52178C11.9781 10.722 12.9511 11.6949 14.1513 11.6949Z" fill="#29D277"/>
<path opacity="0.4" d="M8.09108 18.9558C9.96172 18.9558 11.4782 17.4394 11.4782 15.5687C11.4782 13.6981 9.96172 12.1816 8.09108 12.1816C6.22044 12.1816 4.70398 13.6981 4.70398 15.5687C4.70398 17.4394 6.22044 18.9558 8.09108 18.9558Z" fill="#9C1313"/>
<path d="M8.11089 17.7174C9.31109 17.7174 10.284 16.7444 10.284 15.5442C10.284 14.344 9.31109 13.3711 8.11089 13.3711C6.9107 13.3711 5.93774 14.344 5.93774 15.5442C5.93774 16.7444 6.9107 17.7174 8.11089 17.7174Z" fill="#9C1313"/>
<path opacity="0.4" d="M14.1577 25.0135C16.0284 25.0135 17.5448 23.497 17.5448 21.6264C17.5448 19.7557 16.0284 18.2393 14.1577 18.2393C12.2871 18.2393 10.7706 19.7557 10.7706 21.6264C10.7706 23.497 12.2871 25.0135 14.1577 25.0135Z" fill="#9C1313"/>
<path d="M14.1513 23.7984C15.3515 23.7984 16.3244 22.8255 16.3244 21.6253C16.3244 20.4251 15.3515 19.4521 14.1513 19.4521C12.9511 19.4521 11.9781 20.4251 11.9781 21.6253C11.9781 22.8255 12.9511 23.7984 14.1513 23.7984Z" fill="#9C1313"/>
<path opacity="0.4" d="M20.1972 18.9558C22.0678 18.9558 23.5843 17.4394 23.5843 15.5687C23.5843 13.6981 22.0678 12.1816 20.1972 12.1816C18.3265 12.1816 16.8101 13.6981 16.8101 15.5687C16.8101 17.4394 18.3265 18.9558 20.1972 18.9558Z" fill="#9C1313"/>
<path d="M20.2208 17.7174C21.4209 17.7174 22.3939 16.7444 22.3939 15.5442C22.3939 14.344 21.4209 13.3711 20.2208 13.3711C19.0206 13.3711 18.0476 14.344 18.0476 15.5442C18.0476 16.7444 19.0206 17.7174 20.2208 17.7174Z" fill="#9C1313"/>
<path d="M29.2255 7.13086H31.4735L36.7191 16.5953L41.9646 7.13086H44.2126V23.3919H41.5749V13.5079L37.7232 20.3945H35.7374L31.8857 13.5004V23.3919H29.2255V7.13086Z" fill="#002E5A"/>
<path d="M54.9456 6.8926C56.0925 6.89015 57.2276 7.12449 58.2798 7.58094C59.3319 8.0374 60.2786 8.70615 61.0604 9.54533L59.187 11.4412C58.4199 10.5841 57.4107 9.98007 56.2928 9.70903C55.175 9.43798 54.0012 9.5127 52.9268 9.92328C51.8523 10.3339 50.9278 11.061 50.2756 12.0084C49.6234 12.9559 49.2742 14.079 49.2742 15.2292C49.2742 16.3794 49.6234 17.5026 50.2756 18.45C50.9278 19.3974 51.8523 20.1246 52.9268 20.5351C54.0012 20.9457 55.175 21.0204 56.2928 20.7494C57.4107 20.4783 58.4199 19.8743 59.187 19.0172L61.0604 20.9056C60.1185 21.9207 58.9387 22.6854 57.6275 23.1306C56.3162 23.5757 54.9148 23.6874 53.5495 23.4555C52.1843 23.2236 50.8983 22.6555 49.8076 21.8023C48.7169 20.9491 47.8558 19.8378 47.3019 18.5686C46.7481 17.2994 46.519 15.9123 46.6353 14.5325C46.7516 13.1526 47.2097 11.8234 47.9681 10.6648C48.7266 9.50622 49.7616 8.55472 50.9797 7.89616C52.1979 7.2376 53.5608 6.8927 54.9456 6.8926Z" fill="#002E5A"/>
<path d="M70.4122 6.89242C72.6223 6.8944 74.7414 7.77272 76.3049 9.33479C77.8684 10.8969 78.7486 13.0152 78.7526 15.2253C78.757 17.2118 78.0438 19.1331 76.7443 20.6356L78.3704 22.4416L76.4071 24.2176L74.6986 22.3517C73.4104 23.1468 71.9261 23.5671 70.4122 23.5656C69.2964 23.5991 68.1852 23.4082 67.1446 23.0043C66.1039 22.6004 65.1549 21.9917 64.3538 21.2143C63.5527 20.4368 62.9158 19.5065 62.4809 18.4784C62.046 17.4503 61.8219 16.3453 61.8219 15.229C61.8219 14.1127 62.046 13.0078 62.4809 11.9797C62.9158 10.9516 63.5527 10.0212 64.3538 9.24378C65.1549 8.46635 66.1039 7.85764 67.1446 7.45374C68.1852 7.04984 69.2964 6.85896 70.4122 6.89242ZM64.7321 15.2253C64.7341 16.7311 65.3332 18.1748 66.398 19.2396C67.4628 20.3044 68.9064 20.9034 70.4122 20.9054C71.2627 20.9115 72.0998 20.6944 72.8402 20.276L71.244 18.515L73.2223 16.739L74.9384 18.6274C75.6922 17.6531 76.1032 16.4571 76.1074 15.2253C76.1074 13.7188 75.5089 12.2741 74.4437 11.2088C73.3785 10.1436 71.9337 9.54515 70.4272 9.54515C68.9208 9.54515 67.476 10.1436 66.4108 11.2088C65.3455 12.2741 64.7471 13.7188 64.7471 15.2253H64.7321Z" fill="#002E5A"/>
<defs>
<filter id="filter0_i_3617_25570" x="0.75" y="0.75" width="81.9778" height="29.6279" filterUnits="userSpaceOnUse" color-interpolation-filters="sRGB">
<feFlood flood-opacity="0" result="BackgroundImageFix"/>
<feBlend mode="normal" in="SourceGraphic" in2="BackgroundImageFix" result="shape"/>
<feColorMatrix in="SourceAlpha" type="matrix" values="0 0 0 0 0 0 0 0 0 0 0 0 0 0 0 0 0 0 127 0" result="hardAlpha"/>
<feOffset/>
<feGaussianBlur stdDeviation="11"/>
<feComposite in2="hardAlpha" operator="arithmetic" k2="-1" k3="1"/>
<feColorMatrix type="matrix" values="0 0 0 0 0.713726 0 0 0 0 0.835294 0 0 0 0 0.941176 0 0 0 0.5 0"/>
<feBlend mode="normal" in2="shape" result="effect1_innerShadow_3617_25570"/>
</filter>
<linearGradient id="paint0_linear_3617_25570" x1="1" y1="15.5638" x2="82.4738" y2="16.141" gradientUnits="userSpaceOnUse">
<stop stop-color="#33F3FF"/>
<stop offset="0.494792" stop-color="#8987FF"/>
<stop offset="1" stop-color="#B843FF"/>
</linearGradient>
</defs>
</svg>
