<svg width="20" height="20" viewBox="0 0 20 20" fill="none" xmlns="http://www.w3.org/2000/svg">
<circle cx="10" cy="10" r="10" fill="#4EA7FF"/>
<path d="M10 13.1818C9.1197 13.1818 8.36942 12.8715 7.74918 12.2508C7.12852 11.6306 6.81818 10.8803 6.81818 10C6.81818 9.1197 7.12852 8.36921 7.74918 7.74855C8.36942 7.1283 9.1197 6.81818 10 6.81818C10.8803 6.81818 11.6308 7.1283 12.2515 7.74855C12.8717 8.36921 13.1818 9.1197 13.1818 10C13.1818 10.8803 12.8717 11.6306 12.2515 12.2508C11.6308 12.8715 10.8803 13.1818 10 13.1818ZM3.63636 10.6364C3.45606 10.6364 3.30503 10.5753 3.18327 10.4531C3.06109 10.3313 3 10.1803 3 10C3 9.8197 3.06109 9.66845 3.18327 9.54627C3.30503 9.42451 3.45606 9.36364 3.63636 9.36364H4.90909C5.08939 9.36364 5.24064 9.42451 5.36282 9.54627C5.48458 9.66845 5.54545 9.8197 5.54545 10C5.54545 10.1803 5.48458 10.3313 5.36282 10.4531C5.24064 10.5753 5.08939 10.6364 4.90909 10.6364H3.63636ZM15.0909 10.6364C14.9106 10.6364 14.7596 10.5753 14.6378 10.4531C14.5156 10.3313 14.4545 10.1803 14.4545 10C14.4545 9.8197 14.5156 9.66845 14.6378 9.54627C14.7596 9.42451 14.9106 9.36364 15.0909 9.36364H16.3636C16.5439 9.36364 16.695 9.42451 16.8167 9.54627C16.9389 9.66845 17 9.8197 17 10C17 10.1803 16.9389 10.3313 16.8167 10.4531C16.695 10.5753 16.5439 10.6364 16.3636 10.6364H15.0909ZM10 5.54545C9.8197 5.54545 9.66867 5.48436 9.54691 5.36218C9.42473 5.24042 9.36364 5.08939 9.36364 4.90909V3.63636C9.36364 3.45606 9.42473 3.30482 9.54691 3.18264C9.66867 3.06088 9.8197 3 10 3C10.1803 3 10.3315 3.06088 10.4537 3.18264C10.5755 3.30482 10.6364 3.45606 10.6364 3.63636V4.90909C10.6364 5.08939 10.5755 5.24042 10.4537 5.36218C10.3315 5.48436 10.1803 5.54545 10 5.54545ZM10 17C9.8197 17 9.66867 16.9389 9.54691 16.8167C9.42473 16.695 9.36364 16.5439 9.36364 16.3636V15.0909C9.36364 14.9106 9.42473 14.7596 9.54691 14.6378C9.66867 14.5156 9.8197 14.4545 10 14.4545C10.1803 14.4545 10.3315 14.5156 10.4537 14.6378C10.5755 14.7596 10.6364 14.9106 10.6364 15.0909V16.3636C10.6364 16.5439 10.5755 16.695 10.4537 16.8167C10.3315 16.9389 10.1803 17 10 17ZM5.95909 6.85L5.275 6.18182C5.14773 6.06515 5.08664 5.91667 5.09173 5.73636C5.09724 5.55606 5.15833 5.40227 5.275 5.275C5.40227 5.14773 5.55606 5.08409 5.73636 5.08409C5.91667 5.08409 6.06515 5.14773 6.18182 5.275L6.85 5.95909C6.96667 6.08636 7.025 6.23485 7.025 6.40455C7.025 6.57424 6.96667 6.72273 6.85 6.85C6.73333 6.97727 6.58761 7.03815 6.41282 7.03264C6.23761 7.02755 6.08636 6.96667 5.95909 6.85ZM13.8182 14.725L13.15 14.0409C13.0333 13.9136 12.975 13.7626 12.975 13.5878C12.975 13.4126 13.0333 13.2667 13.15 13.15C13.2667 13.0227 13.4126 12.9618 13.5878 12.9674C13.7626 12.9725 13.9136 13.0333 14.0409 13.15L14.725 13.8182C14.8523 13.9348 14.9134 14.0833 14.9083 14.2636C14.9028 14.4439 14.8417 14.5977 14.725 14.725C14.5977 14.8523 14.4439 14.9159 14.2636 14.9159C14.0833 14.9159 13.9348 14.8523 13.8182 14.725ZM13.15 6.85C13.0227 6.73333 12.9618 6.58739 12.9674 6.41218C12.9725 6.23739 13.0333 6.08636 13.15 5.95909L13.8182 5.275C13.9348 5.14773 14.0833 5.08664 14.2636 5.09173C14.4439 5.09724 14.5977 5.15833 14.725 5.275C14.8523 5.40227 14.9159 5.55606 14.9159 5.73636C14.9159 5.91667 14.8523 6.06515 14.725 6.18182L14.0409 6.85C13.9136 6.96667 13.7652 7.025 13.5955 7.025C13.4258 7.025 13.2773 6.96667 13.15 6.85ZM5.275 14.725C5.14773 14.5977 5.08409 14.4439 5.08409 14.2636C5.08409 14.0833 5.14773 13.9348 5.275 13.8182L5.95909 13.15C6.08636 13.0333 6.23761 12.975 6.41282 12.975C6.58761 12.975 6.73333 13.0333 6.85 13.15C6.97727 13.2667 7.03836 13.4126 7.03327 13.5878C7.02776 13.7626 6.96667 13.9136 6.85 14.0409L6.18182 14.725C6.06515 14.8523 5.91667 14.9132 5.73636 14.9076C5.55606 14.9025 5.40227 14.8417 5.275 14.725Z" fill="white"/>
</svg>
