<svg width="20" height="20" viewBox="0 0 20 20" fill="none" xmlns="http://www.w3.org/2000/svg">
<g clip-path="url(#clip0_4158_13740)">
<path d="M5.673 0C5.85865 0 6.0367 0.0737498 6.16797 0.205025C6.29925 0.336301 6.373 0.514348 6.373 0.7V2.009H13.89V0.709C13.89 0.523348 13.9637 0.345301 14.095 0.214025C14.2263 0.0827498 14.4043 0.009 14.59 0.009C14.7757 0.009 14.9537 0.0827498 15.085 0.214025C15.2162 0.345301 15.29 0.523348 15.29 0.709V2.009H18C18.5303 2.009 19.0388 2.21958 19.4139 2.59443C19.7889 2.96929 19.9997 3.47774 20 4.008V18.001C19.9997 18.5313 19.7889 19.0397 19.4139 19.4146C19.0388 19.7894 18.5303 20 18 20H2C1.46974 20 0.961184 19.7894 0.58614 19.4146C0.211096 19.0397 0.00026513 18.5313 0 18.001L0 4.008C0.00026513 3.47774 0.211096 2.96929 0.58614 2.59443C0.961184 2.21958 1.46974 2.009 2 2.009H4.973V0.699C4.97327 0.513522 5.04713 0.335731 5.17838 0.204672C5.30963 0.0736123 5.48752 -1.89263e-07 5.673 0ZM1.4 7.742V18.001C1.4 18.0798 1.41552 18.1578 1.44567 18.2306C1.47583 18.3034 1.52002 18.3695 1.57574 18.4253C1.63145 18.481 1.69759 18.5252 1.77039 18.5553C1.84319 18.5855 1.92121 18.601 2 18.601H18C18.0788 18.601 18.1568 18.5855 18.2296 18.5553C18.3024 18.5252 18.3685 18.481 18.4243 18.4253C18.48 18.3695 18.5242 18.3034 18.5543 18.2306C18.5845 18.1578 18.6 18.0798 18.6 18.001V7.756L1.4 7.742ZM5.8335 14.619C6.29355 14.619 6.667 14.9919 6.667 15.452C6.667 15.9121 6.29355 16.285 5.8335 16.285C5.37345 16.285 5 15.9121 5 15.452C5 14.9919 5.37345 14.619 5.8335 14.619ZM10 14.619C10.4601 14.619 10.833 14.9919 10.833 15.452C10.833 15.9121 10.4601 16.285 10 16.285C9.53995 16.285 9.167 15.9121 9.167 15.452C9.167 14.9919 9.53995 14.619 10 14.619ZM14.1665 14.619C14.6266 14.619 15 14.9919 15 15.452C15 15.9121 14.6266 16.285 14.1665 16.285C13.7064 16.285 13.333 15.9121 13.333 15.452C13.333 14.9919 13.7064 14.619 14.1665 14.619ZM5.8335 10.642C6.29355 10.642 6.667 11.0149 6.667 11.475C6.667 11.9351 6.29355 12.308 5.8335 12.308C5.37345 12.308 5 11.9351 5 11.475C5 11.0149 5.37345 10.642 5.8335 10.642ZM10 10.642C10.4601 10.642 10.833 11.0149 10.833 11.475C10.833 11.9351 10.4601 12.308 10 12.308C9.53995 12.308 9.167 11.9351 9.167 11.475C9.167 11.0149 9.53995 10.642 10 10.642ZM14.1665 10.642C14.6266 10.642 15 11.0149 15 11.475C15 11.9351 14.6266 12.308 14.1665 12.308C13.7064 12.308 13.333 11.9351 13.333 11.475C13.333 11.0149 13.7064 10.642 14.1665 10.642ZM4.973 3.408H2C1.92121 3.408 1.84319 3.42352 1.77039 3.45367C1.69759 3.48382 1.63145 3.52802 1.57574 3.58374C1.52002 3.63945 1.47583 3.70559 1.44567 3.77839C1.41552 3.85119 1.4 3.92921 1.4 4.008V6.343L18.6 6.357V4.008C18.6 3.92921 18.5845 3.85119 18.5543 3.77839C18.5242 3.70559 18.48 3.63945 18.4243 3.58374C18.3685 3.52802 18.3024 3.48382 18.2296 3.45367C18.1568 3.42352 18.0788 3.408 18 3.408H15.29V4.337C15.29 4.52265 15.2162 4.7007 15.085 4.83197C14.9537 4.96325 14.7757 5.037 14.59 5.037C14.4043 5.037 14.2263 4.96325 14.095 4.83197C13.9637 4.7007 13.89 4.52265 13.89 4.337V3.408H6.373V4.328C6.373 4.51365 6.29925 4.6917 6.16797 4.82297C6.0367 4.95425 5.85865 5.028 5.673 5.028C5.48735 5.028 5.3093 4.95425 5.17803 4.82297C5.04675 4.6917 4.973 4.51365 4.973 4.328V3.408Z" fill="#4EA7FF"/>
</g>
<defs>
<clipPath id="clip0_4158_13740">
<rect width="20" height="20" fill="white"/>
</clipPath>
</defs>
</svg>
